<svg xmlns="http://www.w3.org/2000/svg" width="200.044" height="180.769" viewBox="0 0 200.044 180.769">
    <defs>
        <style>
            .cls-2,.cls-3,.cls-4{fill:none;stroke-linecap:round;stroke-linejoin:round;stroke-width:1.655px}.cls-2{stroke:#010101}.cls-3{stroke:#f23e36}.cls-4{stroke:#ffaf00}
        </style>
    </defs>
    <g id="Group_341" opacity="0.5" transform="matrix(0.259, 0.966, -0.966, 0.259, 165.819, -17.272)">
        <path id="Line_1" d="M0 7.363L7.363 0" class="cls-2" transform="translate(47.571 29.169)"/>
        <path id="Line_2" d="M0 13.534L13.534 0" class="cls-2" transform="translate(22.299 48.269)"/>
        <path id="Line_3" d="M0 50.961L50.961 0" class="cls-2" transform="translate(45.232 9.208)"/>
        <path id="Line_4" d="M0 10.334L10.334 0" class="cls-2" transform="translate(19.247 75.82)"/>
        <path id="Line_5" d="M0 44.841L44.841 0" class="cls-3" transform="translate(81.858 0)"/>
        <path id="Line_6" d="M0 47.811L47.811 0" class="cls-3" transform="translate(14.201 64.687)"/>
        <path id="Line_7" d="M0 79.146L79.146 0" class="cls-2" transform="translate(51.685 17.165)"/>
        <path id="Line_8" d="M0 16.753L16.753 0" class="cls-2" transform="translate(18.959 112.285)"/>
        <path id="Line_9" d="M0 19.023L19.023 0" class="cls-2" transform="translate(117.032 33.24)"/>
        <path id="Line_10" d="M0 97.025L97.025 0" class="cls-2" transform="translate(0 72.27)"/>
        <path id="Line_11" d="M0 94.784L94.784 0" class="cls-3" transform="translate(77.824 17.985)"/>
        <path id="Line_12" d="M0 22.019L22.019 0" class="cls-3" transform="translate(35.959 132.615)"/>
        <path id="Line_13" d="M0 61.232L61.232 0" class="cls-2" transform="translate(96.218 54.441)"/>
        <path id="Line_14" d="M0 45.245L45.245 0" class="cls-2" transform="translate(33.709 132.937)"/>
        <path id="Line_15" d="M0 31.983L31.982 0" class="cls-4" transform="translate(146.72 54.486)"/>
        <path id="Line_16" d="M0 62.129L62.129 0" class="cls-3" transform="translate(61.357 109.703)"/>
        <path id="Line_17" d="M0 43.205L43.205 0" class="cls-2" transform="translate(115.741 95.541)"/>
        <path id="Line_18" d="M0 32.313L32.313 0" class="cls-2" transform="translate(66.486 155.687)"/>
        <path id="Line_19" d="M0 16.807L16.807 0" class="cls-4" transform="translate(154.142 104.835)"/>
        <path id="Line_20" d="M0 42.603L42.603 0" class="cls-3" transform="translate(92.339 140.843)"/>
        <path id="Line_21" d="M0 10.324L10.324 0" class="cls-2" transform="translate(145.409 141.35)"/>
        <path id="Line_22" d="M0 7.123L7.123 0" class="cls-2" transform="translate(127.274 162.686)"/>
    </g>
</svg>
