<svg xmlns="http://www.w3.org/2000/svg" width="1265.595" height="1169.388" viewBox="0 0 1265.595 1169.388">
    <g>
        <g>
            <path fill="rgba(242,62,54,0.03)" d="M278.527 1129.316a136.413 136.413 0 0 1-96.464-232.863c72.685-72.7 72.7-190.97 0-263.655-72.686-72.714-190.941-72.714-263.627 0a136.466 136.466 0 0 1-192.929 0 136.44 136.44 0 0 1 0-192.928c179.073-179.045 470.411-179.045 649.484 0 179.045 179.059 179.045 470.411 0 649.484a135.987 135.987 0 0 1-96.464 39.962z" transform="matrix(0.809, 0.588, -0.588, 0.809, 962.903, -105.142) translate(-314.442 381.666) translate(314.442 -305.585)"/>
        </g>
        <g>
            <path fill="none" stroke="rgba(242,62,54,0.12)" stroke-miterlimit="10" d="M284.292 1123.554a136.42 136.42 0 0 1-96.465-232.863c72.685-72.7 72.7-190.984 0-263.655-72.671-72.728-190.941-72.728-263.613 0a136.484 136.484 0 0 1-192.943 0 136.458 136.458 0 0 1 0-192.943c179.088-179.031 470.411-179.031 649.484 0 179.045 179.059 179.045 470.411 0 649.484a135.977 135.977 0 0 1-96.463 39.977z" transform="matrix(0.809, 0.588, -0.588, 0.809, 962.903, -105.142) translate(-232.6 299.82) translate(308.677 -299.82)"/>
        </g>
    </g>
</svg>
